<svg width="32" height="33" viewBox="0 0 32 33" fill="none" xmlns="http://www.w3.org/2000/svg">
<path opacity="0.14" d="M16 32.073C24.8366 32.073 32 24.9096 32 16.073C32 7.23644 24.8366 0.072998 16 0.072998C7.16344 0.072998 0 7.23644 0 16.073C0 24.9096 7.16344 32.073 16 32.073Z" fill="#FF5A3C"/>
<path d="M14.312 21.34C14.738 21.693 15.688 21.576 15.79 21.021C16.426 17.573 19.608 14.664 22.016 11.921C22.684 11.161 21.148 10.44 20.489 11.19C18.289 13.69 15.515 16.33 14.43 19.37C13.1978 18.3033 11.9039 17.3099 10.555 16.395C9.674 15.817 8.414 16.834 9.304 17.418C11.0454 18.6307 12.7173 19.9401 14.312 21.34Z" fill="#FF5A3C"/>
</svg>
